<?xml version="1.0" encoding="UTF-8"?>
<svg width="103px" height="32px" viewBox="0 0 103 32" version="1.1" xmlns="http://www.w3.org/2000/svg" xmlns:xlink="http://www.w3.org/1999/xlink">
    <!-- Generator: Sketch 60 (88103) - https://sketch.com -->
    <!-- <title>google-logo</title>
    <desc>Created with Sketch.</desc> -->
    <g id="Page-1" stroke="none" stroke-width="1" fill="none" fill-rule="evenodd">
        <g id="1280_Register_v1" transform="translate(-721.000000, -763.000000)" fill-rule="nonzero">
            <g id="trusted-orgs" transform="translate(716.000000, 698.000000)">
                <g id="google-logo" transform="translate(5.000000, 65.000000)">
                    <path d="M12.6051342,11.4118919 L12.6051342,14.8396396 L20.7232272,14.8396396 C20.4747142,16.7625225 19.8396253,18.1698498 18.8731856,19.1591592 C17.6858455,20.3574775 15.8358039,21.6672673 12.6051342,21.6672673 C7.60726062,21.6672673 3.70008321,17.5985586 3.70008321,12.5544745 C3.70008321,7.51039039 7.60726062,3.44168168 12.6051342,3.44168168 C15.2973589,3.44168168 17.2716571,4.51459459 18.7213165,5.89405405 L21.1098031,3.48348348 C19.0940861,1.50486486 16.3880551,0 12.6051342,0 C5.75721902,0 0,5.62930931 0,12.5405405 C0,19.4517718 5.75721902,25.0810811 12.6051342,25.0810811 C16.3052174,25.0810811 19.0940861,23.8548949 21.2754784,21.5697297 C23.5120959,19.3124324 24.2162162,16.1215616 24.2162162,13.5577177 C24.2162162,12.7634835 24.1609911,12.024985 24.0367346,11.4118919 L12.6051342,11.4118919 Z" id="Path" fill="#4285F4"></path>
                    <path d="M35.027027,8.64864865 C30.5031756,8.64864865 26.8108108,12.0991766 26.8108108,16.8648649 C26.8108108,21.5881286 30.5031756,25.0810811 35.027027,25.0810811 C39.5508785,25.0810811 43.2432432,21.6022701 43.2432432,16.8648649 C43.2432432,12.0991766 39.5508785,8.64864865 35.027027,8.64864865 Z M35.027027,21.8426757 C32.5466599,21.8426757 30.4045246,19.792157 30.4045246,16.8648649 C30.4045246,13.9092897 32.5466599,11.887054 35.027027,11.887054 C37.5073942,11.887054 39.6495295,13.9092897 39.6495295,16.8648649 C39.6495295,19.792157 37.5073942,21.8426757 35.027027,21.8426757 Z" id="Shape" fill="#EA4335"></path>
                    <path d="M74.412973,10.4555985 L74.285602,10.4555985 C73.4789189,9.51042471 71.9221622,8.64864865 69.9549877,8.64864865 C65.8508108,8.64864865 62.2702703,12.165251 62.2702703,16.7243243 C62.2702703,21.2555985 65.8508108,24.8 69.9549877,24.8 C71.9221622,24.8 73.4789189,23.9382239 74.285602,22.965251 L74.412973,22.965251 L74.412973,24.0911197 C74.412973,27.176834 72.7288452,28.830888 70.0257494,28.830888 C67.8179853,28.830888 66.4452088,27.2741313 65.8791155,25.953668 L62.7372973,27.2324324 C63.6430467,29.372973 66.0347912,32 70.0257494,32 C74.2572973,32 77.8378378,29.553668 77.8378378,23.5907336 L77.8378378,9.06563707 L74.412973,9.06563707 L74.412973,10.4555985 Z M70.2663391,21.6169884 C67.7755283,21.6169884 65.8791155,19.5320463 65.8791155,16.7243243 C65.8791155,13.8749035 67.7755283,11.8316602 70.2663391,11.8316602 C72.7288452,11.8316602 74.6536396,13.9166023 74.6536396,16.7521236 C74.667715,19.5737452 72.7288452,21.6169884 70.2663391,21.6169884 Z" id="Shape" fill="#4285F4"></path>
                    <path d="M53.1891892,8.64864865 C48.6653377,8.64864865 44.972973,12.0991766 44.972973,16.8648649 C44.972973,21.5881286 48.6653377,25.0810811 53.1891892,25.0810811 C57.7130407,25.0810811 61.4054054,21.6022701 61.4054054,16.8648649 C61.4054054,12.0991766 57.7130407,8.64864865 53.1891892,8.64864865 Z M53.1891892,21.8426757 C50.708822,21.8426757 48.5666868,19.792157 48.5666868,16.8648649 C48.5666868,13.9092897 50.708822,11.887054 53.1891892,11.887054 C55.6695563,11.887054 57.8116916,13.9092897 57.8116916,16.8648649 C57.8116916,19.792157 55.6695563,21.8426757 53.1891892,21.8426757 Z" id="Shape" fill="#FBBC05"></path>
                    <polygon id="Path" fill="#34A853" points="80.4324324 0.864864865 83.8918919 0.864864865 83.8918919 25.0810811 80.4324324 25.0810811"></polygon>
                    <path d="M95.2586873,21.8426757 C93.4740455,21.8426757 92.2110682,21.0083267 91.3873874,19.3537703 L102.054054,14.8143462 L101.697126,13.8810067 C101.038181,12.0426106 99.006435,8.64864865 94.8743029,8.64864865 C90.7696268,8.64864865 87.3513514,11.9719031 87.3513514,16.8648649 C87.3513514,21.4749965 90.7284427,25.0810811 95.2586873,25.0810811 C98.9103389,25.0810811 101.024453,22.7760153 101.903046,21.4467135 L99.1848992,19.5800344 C98.2788503,20.9376192 97.043329,21.8426757 95.2586873,21.8426757 Z M95.011583,11.7314974 C96.4255684,11.7314974 97.6336336,12.4809973 98.031746,13.5416105 L90.8245388,16.6103177 C90.8245388,13.1597897 93.1994852,11.7314974 95.011583,11.7314974 L95.011583,11.7314974 Z" id="Shape" fill="#EA4335"></path>
                </g>
            </g>
        </g>
    </g>
</svg>