<?xml version="1.0" encoding="UTF-8"?>
<svg width="113px" height="24px" viewBox="0 0 113 24" version="1.1" xmlns="http://www.w3.org/2000/svg" xmlns:xlink="http://www.w3.org/1999/xlink">
    <!-- Generator: Sketch 60 (88103) - https://sketch.com -->
   
    <g id="Page-1" stroke="none" stroke-width="1" fill="none" fill-rule="evenodd">
        <g id="1280_Register_v1" transform="translate(-716.000000, -827.000000)">
            <g id="trusted-orgs" transform="translate(716.000000, 698.000000)">
                <g id="msft_logo_print" transform="translate(0.000000, 129.000000)">
                    <path d="M0,0 L11.4171429,0 C11.4164571,3.80571429 11.4171429,7.61142857 11.4164571,11.4171429 C7.61142857,11.4171429 3.80571429,11.4171429 0,11.4171429 L0,0" id="Fill-1" fill="#F25022"></path>
                    <path d="M12.5828571,0 L24,0 C24,3.80571429 24.0006857,7.61142857 23.9993143,11.4171429 C20.1942857,11.4164571 16.3885714,11.4171429 12.5835429,11.4171429 C12.5821714,7.61142857 12.5828571,3.80571429 12.5828571,0" id="Fill-3" fill="#80BA01"></path>
                    <path d="M102.956571,4.35017143 C104.009143,3.66514286 105.368914,3.60137143 106.5552,3.92777143 C106.565486,4.63268571 106.556571,5.33828571 106.56,6.04388571 C105.996343,5.79565714 105.333257,5.63382857 104.740114,5.87725714 C104.269714,6.06377143 103.989943,6.54651429 103.916571,7.02925714 C103.828114,7.6416 103.885714,8.26217143 103.870629,8.87794286 C105.074743,8.88068571 106.278857,8.87862857 107.482971,8.87931429 C107.491886,8.0976 107.473371,7.3152 107.493257,6.53348571 C108.312,6.30034286 109.121829,6.03908571 109.936457,5.7936 C109.943314,6.82354286 109.926857,7.85417143 109.945371,8.8848 C110.759314,8.87314286 111.573943,8.88205714 112.388571,8.87931429 L112.388571,10.8843429 C111.5712,10.8507429 110.753143,10.8754286 109.935771,10.8726857 C109.9392,12.0253714 109.936457,13.1780571 109.937143,14.3314286 C109.950171,14.9698286 109.902857,15.6116571 109.9776,16.248 C110.022857,16.6230857 110.159314,17.0386286 110.511086,17.2326857 C111.100114,17.5625143 111.847543,17.4185143 112.388571,17.0564571 L112.388571,19.0813714 C111.682971,19.3878857 110.8944,19.4811429 110.1312,19.4269714 C109.407086,19.3734857 108.656914,19.1101714 108.184457,18.5341714 C107.638629,17.8834286 107.498057,17.0022857 107.487086,16.1780571 C107.480914,14.4089143 107.487771,12.6397714 107.484343,10.8699429 C106.279543,10.8692571 105.074743,10.8685714 103.870629,10.8706286 C103.869257,13.6470857 103.869943,16.4235429 103.869943,19.2 C103.047086,19.2 102.223543,19.2 101.400686,19.2 C101.400686,16.4242286 101.397257,13.6491429 101.402057,10.8733714 C100.829486,10.8624 100.256229,10.8761143 99.6836571,10.8644571 C99.6857143,10.2054857 99.6884571,9.54582857 99.6822857,8.88617143 C100.252114,8.87314286 100.822629,8.87862857 101.393829,8.88274286 C101.435657,8.0064 101.301943,7.10468571 101.563886,6.25097143 C101.785371,5.48022857 102.277714,4.78491429 102.956571,4.35017143" id="Fill-4" fill="#777777"></path>
                    <path d="M50.0893714,4.49417143 C50.5872,4.41874286 51.1261714,4.5888 51.456,4.97828571 C51.8427429,5.4048 51.9140571,6.08365714 51.6274286,6.58217143 C51.3106286,7.14445714 50.6016,7.40571429 49.9837714,7.27062857 C49.3426286,7.15542857 48.8084571,6.55954286 48.8372571,5.89508571 C48.8187429,5.19565714 49.4036571,4.57234286 50.0893714,4.49417143" id="Fill-5" fill="#777777"></path>
                    <path d="M31.1657143,4.8 C32.3629714,4.8 33.5595429,4.8 34.7568,4.8 C35.8745143,7.63817143 37.0004571,10.4736 38.1195429,13.3117714 C38.4054857,14.0214857 38.6729143,14.7394286 38.9725714,15.4436571 C40.4105143,11.8971429 41.8690286,8.35954286 43.296,4.80822857 C44.4473143,4.78971429 45.5993143,4.80411429 46.7513143,4.80137143 C46.7485714,9.60068571 46.7499429,14.4 46.7506286,19.1993143 C45.9195429,19.1972571 45.0891429,19.2061714 44.2587429,19.1945143 C44.2676571,15.6528 44.2580571,12.1110857 44.2628571,8.56868571 C44.2642286,8.4096 44.2587429,8.25051429 44.2477714,8.09142857 C44.1990857,8.16548571 44.1558857,8.24228571 44.1181714,8.32182857 C42.6912,11.9472 41.2368,15.5622857 39.8180571,19.1910857 C39.2269714,19.2123429 38.6352,19.1924571 38.0434286,19.2020571 C36.5712,15.5766857 35.1174857,11.9430857 33.6528,8.31497143 C33.6144,8.23954286 33.5732571,8.16617143 33.5286857,8.09554286 C33.4985143,9.64731429 33.5238857,11.2004571 33.5156571,12.7522286 C33.5163429,14.9012571 33.5142857,17.0502857 33.5163429,19.1993143 C32.7325714,19.2013714 31.9488,19.1993143 31.1657143,19.2 C31.1649225,14.4 31.1643429,9.6 31.1657143,4.8" id="Fill-6" fill="#777777"></path>
                    <path d="M56.8848,8.86971429 C58.0765714,8.53028571 59.3616,8.544 60.5526857,8.88068571 C60.7981714,8.94925714 61.0361143,9.04457143 61.2569143,9.17417143 C61.2432,9.96068571 61.2569143,10.7478857 61.2493714,11.5350857 C60.4532571,10.9268571 59.4432,10.5414857 58.4310857,10.6690286 C57.6274286,10.7417143 56.8608,11.1586286 56.3801143,11.808 C55.7622857,12.6130286 55.6196571,13.6820571 55.7259429,14.6667429 C55.8054857,15.4374857 56.1243429,16.2075429 56.7236571,16.7184 C57.3462857,17.2717714 58.2192,17.4678857 59.0338286,17.4061714 C59.8388571,17.3136 60.5986286,16.9728 61.2493714,16.4969143 C61.2562286,17.2422857 61.2459429,17.9876571 61.2548571,18.7330286 C60.2454857,19.3337143 59.0352,19.4886857 57.8797714,19.4317714 C56.6976,19.3693714 55.5188571,18.9216 54.6630857,18.0905143 C53.7332571,17.1942857 53.2285714,15.9161143 53.1689143,14.6358857 C53.1085714,13.3049143 53.3794286,11.9163429 54.1453714,10.8048 C54.7872,9.85645714 55.7910857,9.18514286 56.8848,8.86971429" id="Fill-7" fill="#777777"></path>
                    <path d="M77.1490286,9.10902857 C78.1035429,9.53965714 78.8770286,10.3357714 79.3056,11.2889143 C79.7629714,12.3037714 79.8740571,13.4434286 79.7965714,14.544 C79.7204571,15.6185143 79.3830857,16.6950857 78.7110857,17.5488 C78.0233143,18.4553143 76.9865143,19.0697143 75.8763429,19.2980571 C74.9273143,19.4955429 73.9344,19.4948571 72.9853714,19.2953143 C71.8498286,19.0525714 70.7986286,18.3936 70.1328,17.4349714 C69.3510857,16.3241143 69.1289143,14.9115429 69.2283429,13.5805714 C69.2955429,12.4512 69.6466286,11.3129143 70.368,10.4269714 C71.1579429,9.43474286 72.3696,8.84914286 73.6141714,8.69211429 C74.7990857,8.54125714 76.0491429,8.60845714 77.1490286,9.10902857 Z M74.5369381,10.6451413 L74.3506286,10.6518857 C73.7602286,10.6848 73.1636571,10.8843429 72.7261714,11.2930286 C72.1227429,11.8395429 71.8470857,12.6541714 71.7723429,13.4461714 C71.6900571,14.3170286 71.7497143,15.2352 72.1474286,16.0292571 C72.4566857,16.6457143 73.0251429,17.1298286 73.6950857,17.3060571 C74.3533714,17.4768 75.0699429,17.4624 75.7076571,17.2176 C76.2528,17.0050286 76.6848,16.5565714 76.9206857,16.0258286 C77.2772571,15.2386286 77.3122286,14.3533714 77.2683429,13.5037714 C77.2073143,12.7275429 76.9865143,11.9136 76.416,11.3526857 C75.8825143,10.8130286 75.0925714,10.6032 74.3506286,10.6518857 Z" id="Combined-Shape" fill="#777777"></path>
                    <path d="M83.8573714,8.71268571 C84.9990857,8.51177143 86.1942857,8.6592 87.2749714,9.06857143 C87.2763429,9.8256 87.2749714,10.5819429 87.2756571,11.3382857 C86.5206857,10.8192 85.5984,10.5401143 84.6822857,10.5723429 C84.2208,10.5901714 83.7133714,10.7856 83.5028571,11.2244571 C83.3355429,11.6585143 83.4514286,12.2276571 83.8608,12.4875429 C84.5609143,12.9558857 85.3961143,13.1547429 86.1216,13.5744 C86.6928,13.8953143 87.2468571,14.3149714 87.5362286,14.9197714 C88.08,16.0525714 87.8496,17.5494857 86.8937143,18.3942857 C85.9810286,19.2473143 84.6665143,19.4832 83.4576,19.4379429 C82.5990857,19.3824 81.7364571,19.2130286 80.9472,18.8619429 C80.9506286,18.0658286 80.9424,17.2704 80.9513143,16.4749714 C81.6150857,16.9570286 82.3810286,17.3019429 83.1915429,17.4418286 C83.7558857,17.5337143 84.3696,17.5378286 84.8955429,17.2854857 C85.3988571,17.0352 85.4893714,16.32 85.1904,15.8825143 C84.9106286,15.5451429 84.4998857,15.3593143 84.1124571,15.1769143 C83.3849143,14.8498286 82.6203429,14.5762286 81.9812571,14.0859429 C81.5321143,13.7355429 81.192,13.2418286 81.0589714,12.6850286 C80.8614857,11.8642286 80.9232,10.9392 81.4004571,10.2219429 C81.9456,9.38605714 82.8925714,8.8848 83.8573714,8.71268571" id="Fill-9" fill="#777777"></path>
                    <path d="M96.96,9.18651429 C97.9405714,9.6768 98.7010286,10.5627429 99.0809143,11.5872 C99.3778286,12.3709714 99.4820571,13.2171429 99.4649143,14.0516571 C99.4669714,15.2982857 99.1302857,16.5778286 98.3478857,17.5666286 C97.6155429,18.5238857 96.4950857,19.1458286 95.3122286,19.3412571 C94.1554286,19.5284571 92.9334857,19.4797714 91.8342857,19.0470857 C90.7206857,18.6089143 89.7949714,17.7147429 89.3259429,16.6134857 C88.8370286,15.4909714 88.7856,14.2278857 88.9378286,13.0285714 C89.0976,11.8292571 89.6406857,10.6566857 90.5664,9.8592 C91.3248,9.19337143 92.3012571,8.81622857 93.2948571,8.68868571 C94.5270857,8.53577143 95.8354286,8.61874286 96.96,9.18651429 Z M94.1525446,10.6459425 L93.9613714,10.6539429 C93.2784,10.6923429 92.6009143,10.9865143 92.1593143,11.5186286 C91.6752,12.0884571 91.4674286,12.8406857 91.4112,13.5737143 C91.3529143,14.3307429 91.4112,15.1145143 91.704,15.8221714 C91.9474286,16.416 92.4096,16.9323429 93.0061714,17.1846857 C93.5588571,17.4226286 94.1814857,17.4651429 94.7725714,17.3766857 C95.3232,17.2957714 95.8566857,17.0324571 96.2153143,16.6004571 C96.5712,16.1705143 96.7590857,15.6288 96.8537143,15.0857143 C96.9730286,14.3568 96.9744,13.6059429 96.8331429,12.8804571 C96.7076571,12.2619429 96.4340571,11.6475429 95.9396571,11.2374857 C95.4034286,10.7664 94.6587429,10.6052571 93.9613714,10.6539429 Z" id="Combined-Shape" fill="#777777"></path>
                    <path d="M66.7782857,9.03771429 C67.4598857,8.62834286 68.3259429,8.59405714 69.0699429,8.84434286 C69.0665143,9.66788571 69.0699429,10.4914286 69.0678857,11.3149714 C68.5810286,10.9995429 67.9734857,10.8644571 67.3988571,10.9227429 C66.6980571,11.0022857 66.1426286,11.5405714 65.8546286,12.1577143 C65.5419429,12.8112 65.4829714,13.5504 65.5028571,14.2649143 C65.5028571,15.9099429 65.5035429,17.5549714 65.5028571,19.2 C64.6909714,19.2 63.8797714,19.2 63.0685714,19.2 C63.0665143,15.7618286 63.0713143,12.3229714 63.0665143,8.8848 C63.8790857,8.87451429 64.6916571,8.87862857 65.5042286,8.88274286 C65.5008,9.47314286 65.5042286,10.0635429 65.5021714,10.6546286 C65.7661714,10.0121143 66.1590857,9.38811429 66.7782857,9.03771429" id="Fill-11" fill="#777777"></path>
                    <path d="M49.0614857,8.88274286 C49.8802286,8.87931429 50.6996571,8.87108571 51.5184,8.88685714 C51.5088,12.3243429 51.5177143,15.7625143 51.5142857,19.2 C50.6969143,19.2 49.8795429,19.2 49.0628571,19.2 C49.0608,15.7611429 49.0635429,12.3222857 49.0614857,8.88274286" id="Fill-12" fill="#777777"></path>
                    <path d="M109.935771,10.8726857 C110.753143,10.8754286 111.5712,10.8507429 112.388571,10.8843429 L112.388571,17.0564571 C111.847543,17.4185143 111.100114,17.5625143 110.511086,17.2326857 C110.159314,17.0386286 110.022857,16.6230857 109.9776,16.248 C109.902857,15.6116571 109.950171,14.9698286 109.937143,14.3314286 C109.936457,13.1780571 109.9392,12.0253714 109.935771,10.8726857" id="Fill-15" fill="#FAFAFA"></path>
                    <path d="M0,12.5821714 C3.80571429,12.5835429 7.61142857,12.5814857 11.4171429,12.5835429 C11.4178286,16.3892571 11.4171429,20.1942857 11.4171429,24 L0,24 L0,12.5821714" id="Fill-16" fill="#02A4EF"></path>
                    <path d="M12.5835429,12.5835429 C16.3885714,12.5821714 20.1942857,12.5828571 24,12.5828571 C24,16.3885714 24,20.1942857 24,24 L12.5828571,24 C12.5835429,20.1942857 12.5821714,16.3885714 12.5835429,12.5835429" id="Fill-17" fill="#FFB902"></path>
                </g>
            </g>
        </g>
    </g>
</svg>