<?xml version="1.0" encoding="UTF-8"?>
<svg width="77px" height="40px" viewBox="0 0 77 40" version="1.1" xmlns="http://www.w3.org/2000/svg" xmlns:xlink="http://www.w3.org/1999/xlink">
    <!-- Generator: Sketch 60 (88103) - https://sketch.com -->
    <title>NIKE_logo</title>
    <desc>Created with Sketch.</desc>
    <defs>
        <polygon id="path-1" points="0.00702764977 0.0896470588 76.1739724 0.0896470588 76.1739724 40 0.00702764977 40"></polygon>
    </defs>
    <g id="Page-1" stroke="none" stroke-width="1" fill="none" fill-rule="evenodd">
        <g id="1280_Register_v1" transform="translate(-1127.000000, -822.000000)">
            <g id="trusted-orgs" transform="translate(716.000000, 698.000000)">
                <g id="NIKE_logo" transform="translate(411.000000, 124.000000)">
                    <path d="M12.7680684,26.2889412 C12.3365707,26.2889412 12.0161098,25.9722353 12.0161098,25.5437647 C12.0161098,25.1154118 12.334111,24.796 12.7680684,24.796 C13.1971064,24.796 13.520144,25.1204706 13.520144,25.5437647 C13.520144,25.9645882 13.1946467,26.2889412 12.7680684,26.2889412 Z M12.7680684,24.4969412 C12.1625192,24.4969412 11.6880357,24.9228235 11.6880357,25.5437647 C11.6880357,26.1648235 12.1649789,26.5881176 12.7680684,26.5881176 C13.371275,26.5881176 13.8482181,26.1622353 13.8482181,25.5437647 C13.8482181,24.9228235 13.3737346,24.4969412 12.7680684,24.4969412 L12.7680684,24.4969412 Z" id="Fill-1" fill="#1A1919"></path>
                    <polyline id="Fill-2" fill="#1A1919" points="23.2770987 20.8358824 18.0194796 20.8358824 18.6171813 11.6571765 15.2030319 20.8358824 10.3209236 20.8358824 18.0671505 0.0896470588 23.2621064 0.0896470588 22.6622965 9.394 26.1412174 0.0896470588 31.0232085 0.0896470588 23.2770987 20.8358824"></polyline>
                    <g id="Group-6">
                        <mask id="mask-2" fill="white">
                            <use xlink:href="#path-1"></use>
                        </mask>
                        <g id="Clip-4"></g>
                        <polyline id="Fill-3" fill="#1A1919" mask="url(#mask-2)" points="23.9109927 20.8358824 31.6572197 0.0896470588 36.5392108 0.0896470588 28.7929839 20.8358824 23.9109927 20.8358824"></polyline>
                        <path d="M9.75800883,13.6847059 C2.93568356,21.7317647 -3.49965246,32.4390588 2.18466206,37.37 C7.69258257,42.148 14.5774539,39.3189412 19.2716897,37.4329412 C23.9659255,35.5468235 75.8528207,12.9145882 75.8528207,12.9145882 C76.3536578,12.6631765 76.2597216,12.3488235 75.6337922,12.506 C75.3811482,12.5694118 19.1464804,27.8770588 19.1464804,27.8770588 C12.0111905,29.8888235 3.87457757,25.5037647 9.75800883,13.6847059" id="Fill-5" fill="#1A1919" mask="url(#mask-2)"></path>
                    </g>
                    <path d="M12.9342679,25.4850574 L12.713246,25.4850574 L12.713246,25.1949675 L12.8998084,25.1949675 C13.0137653,25.1949675 13.1448718,25.2063358 13.1448718,25.3273373 C13.1448718,25.4568324 13.0689006,25.4850574 12.9342679,25.4850574 Z M13.1828575,25.6877283 C13.3900956,25.6792347 13.5524562,25.592077 13.5524562,25.3583064 C13.5524562,25.0571094 13.3107585,24.9810588 12.9067003,24.9810588 L12.3264977,24.9810588 L12.3264977,26.2310588 L12.713246,26.2310588 L12.713246,25.698966 L12.7787993,25.698966 L13.131088,26.2310588 L13.5764977,26.2310588 L13.1828575,25.6877283 L13.1828575,25.6877283 Z" id="Fill-7" fill="#1A1919"></path>
                    <path d="M61.8444892,1.81835294 C61.4129916,1.81835294 61.0925307,1.50164706 61.0925307,1.07317647 C61.0925307,0.644823529 61.4104147,0.325411765 61.8444892,0.325411765 C62.2735273,0.325411765 62.5965649,0.649882353 62.5965649,1.07317647 C62.5965649,1.494 62.2710676,1.81835294 61.8444892,1.81835294 Z M61.8444892,0.0263529412 C61.2389401,0.0263529412 60.7644566,0.452235294 60.7644566,1.07317647 C60.7644566,1.69423529 61.2413998,2.11752941 61.8444892,2.11752941 C62.4476959,2.11752941 62.924639,1.69164706 62.924639,1.07317647 C62.924639,0.452235294 62.4501555,0.0263529412 61.8444892,0.0263529412 L61.8444892,0.0263529412 Z" id="Fill-8" fill="#1A1919"></path>
                    <path d="M62.0106888,1.01446912 L61.7896669,1.01446912 L61.7896669,0.724379223 L61.9762293,0.724379223 C62.0901862,0.724379223 62.2212927,0.735747611 62.2212927,0.856749075 C62.2212927,0.986244161 62.1453215,1.01446912 62.0106888,1.01446912 Z M62.2592784,1.21714004 C62.4665165,1.20864642 62.6287168,1.12148878 62.6287168,0.887718132 C62.6287168,0.586521184 62.3871794,0.510470588 61.9831212,0.510470588 L61.4029186,0.510470588 L61.4029186,1.76047059 L61.7896669,1.76047059 L61.7896669,1.22837776 L61.8553804,1.22837776 L62.2075089,1.76047059 L62.6529186,1.76047059 L62.2592784,1.21714004 L62.2592784,1.21714004 Z" id="Fill-9" fill="#1A1919"></path>
                    <path d="M42.8917377,19.4528235 L42.5788902,8.63964706 L49.960265,0.499411765 L42.8917377,19.4528235 Z M58.6278168,3.54729412 L59.9396448,0.0896470588 L45.0433698,0.0896470588 L39.9279435,6.31352941 L42.289351,0.0896470588 L37.3448137,0.0896470588 L29.66125,20.8358824 L34.5432412,20.8358824 L37.8235138,12.1601176 L38.0482815,20.8358824 L53.0280684,20.8032941 L54.4540956,16.8123529 L48.7584197,16.8123529 L50.6296486,11.7829412 L55.3238844,11.7829412 L56.7680664,7.91658824 L52.0738306,7.91658824 L53.6831624,3.54729412 L58.6278168,3.54729412 L58.6278168,3.54729412 Z" id="Fill-10" fill="#1A1919"></path>
                </g>
            </g>
        </g>
    </g>
</svg>